<?xml version="1.0" encoding="UTF-8"?>
<svg version="1.1" viewBox="0 0 2048 2048" width="720" height="720" xmlns="http://www.w3.org/2000/svg">
<path transform="translate(0)" d="m0 0h2048v2048h-2048z" fill="#ECECEC"/>
<path transform="translate(991,1303)" d="m0 0h75l41 2 51 5 49 7 43 8 39 9 34 9 38 12 29 10 28 11 26 11 24 11 38 19 23 13 20 12 25 16 17 12 19 14 14 11 11 9 13 11 13 12 8 7 26 26 7 8 13 15 13 16 14 19 16 24 13 22 14 26 10 22 12 31 9 30 7 31 5 33 2 19-1 1h-1606l1-17 4-29 6-28 8-29 9-26 11-26 14-29 14-24 12-19 12-17 13-17 9-11 12-14 9-10 7-7 7-8 8-8 8-7 8-8 8-7 14-12 16-13 20-15 17-12 24-16 21-13 21-12 26-14 26-13 29-13 35-14 36-13 42-13 42-11 41-9 39-7 43-6 39-4 30-2z" fill="#B0B6B8"/>
<path transform="translate(1009,415)" d="m0 0h44l28 3 29 5 30 8 28 10 29 13 24 13 22 14 16 12 13 10 14 12 15 14 12 12 7 8 11 13 12 16 13 19 13 21 14 26 11 24 11 29 8 27 7 30 6 36 2 21 1 23v30l-2 30-4 30-6 30-8 30-10 29-11 26-8 16-11 21-12 19-11 16-10 13-13 16-11 12-12 13-17 16-14 12-12 9-17 12-19 12-22 12-21 10-26 10-29 9-33 7-22 3-11 1-23 1h-16l-27-2-27-4-27-6-27-8-27-10-29-14-20-11-17-11-14-10-14-11-14-12-12-11-20-20-7-8-14-17-13-18-10-15-9-15-12-22-13-27-11-29-9-29-7-29-6-36-2-23-1-19v-32l2-29 4-31 5-26 8-30 10-30 12-29 16-32 14-23 15-22 11-14 9-11 22-24 17-16 11-9 15-12 17-12 19-12 25-14 22-10 29-11 24-7 34-7 24-3z" fill="#B0B6B8"/>
</svg>
